<svg id="Capa_1" enable-background="new 0 0 512 512" height="512" viewBox="0 0 512 512" width="512" xmlns="http://www.w3.org/2000/svg"><g><path d="m256.01 211c16.542 0 30-13.458 30-30s-13.458-30-30-30-30 13.458-30 30 13.458 30 30 30zm0-40c5.514 0 10 4.486 10 10s-4.486 10-10 10-10-4.486-10-10 4.486-10 10-10z"/><path d="m256.01 301c-16.542 0-30 13.458-30 30s13.458 30 30 30 30-13.458 30-30-13.458-30-30-30zm0 40c-5.514 0-10-4.486-10-10s4.486-10 10-10 10 4.486 10 10-4.486 10-10 10z"/><path d="m505.72 199.399c-.5-2.22-1.76-4.22-3.55-5.64-2.35-1.85-5.48-2.57-8.41-1.91-2.6.59-4.82 2.16-6.25 4.42-1.42 2.261-1.88 4.94-1.3 7.54 3.113 13.788 4.961 27.94 5.558 42.19h-76.079c-2.269-36.601-16.894-69.906-39.751-95.787l53.872-53.871c8.148 8.871 15.679 18.426 22.501 28.619 1.86 2.78 4.97 4.439 8.32 4.439 1.98 0 3.9-.59 5.55-1.689 4.58-3.07 5.81-9.29 2.75-13.87-11.43-17.1-24.94-32.83-40.15-46.74-15.24-13.95-32.14-26.04-50.23-35.92-18.41-10.05-38.02-17.8-58.28-23.04-20.881-5.4-42.501-8.14-64.271-8.14-17.37 0-34.73 1.75-51.59 5.2-16.44 3.369-32.61 8.38-48.06 14.92-15.17 6.41-29.8 14.359-43.48 23.6-13.56 9.16-26.3 19.68-37.89 31.26-11.58 11.58-22.1 24.33-31.26 37.89-9.24 13.68-17.18 28.31-23.6 43.479-6.53 15.451-11.55 31.621-14.92 48.061-3.45 16.86-5.2 34.22-5.2 51.59s1.75 34.729 5.2 51.59c3.37 16.44 8.39 32.61 14.92 48.06 6.42 15.17 14.36 29.801 23.6 43.48 9.16 13.56 19.68 26.3 31.26 37.89 11.59 11.58 24.33 22.101 37.89 31.261 13.68 9.239 28.31 17.18 43.48 23.6 15.45 6.53 31.62 11.55 48.06 14.92 16.86 3.45 34.22 5.2 51.59 5.2s34.73-1.75 51.59-5.2c16.44-3.37 32.61-8.39 48.06-14.92 15.17-6.42 29.8-14.36 43.48-23.6 13.56-9.16 26.31-19.681 37.89-31.261 11.58-11.59 22.1-24.33 31.26-37.89 9.24-13.68 17.19-28.311 23.6-43.48 6.54-15.449 11.55-31.619 14.92-48.06 3.45-16.86 5.2-34.22 5.2-51.59 0-19.101-2.11-38.141-6.28-56.601zm-249.71 196.601c-35.841 0-65-29.159-65-65s29.159-65 65-65c46.869 0 85-38.131 85-85 0-16.508-4.746-31.921-12.923-44.977 40.667 24.523 67.923 69.125 67.923 119.977 0 77.196-62.803 140-140 140zm-72.107-20.035c-40.65-24.527-67.893-69.126-67.893-119.965 0-77.196 62.804-140 140-140 35.841 0 65 29.159 65 65s-29.159 65-65 65c-46.869 0-85 38.131-85 85 0 16.497 4.726 31.915 12.893 44.965zm231.766-293.764-53.871 53.872c-25.881-22.857-59.186-37.482-95.787-39.751v-76.105c56.178 2.367 108.981 24.592 149.658 61.984zm-169.659-61.98v76.1c-36.6 2.269-69.905 16.894-95.786 39.75l-53.869-53.869c41.223-37.928 93.699-59.665 149.655-61.981zm-163.798 76.123 53.87 53.87c-22.856 25.881-37.481 59.186-39.75 95.786h-76.11c2.318-55.95 24.059-108.433 61.99-149.656zm-61.99 169.656h76.11c2.269 36.601 16.894 69.905 39.75 95.786l-53.87 53.87c-37.931-41.223-59.672-93.707-61.99-149.656zm76.133 163.798 53.869-53.869c25.881 22.856 59.185 37.481 95.786 39.75v76.099c-55.956-2.323-108.432-24.053-149.655-61.98zm169.655 61.978v-76.098c36.6-2.269 69.905-16.894 95.786-39.75l53.859 53.86c-41.219 37.929-93.691 59.661-149.645 61.988zm163.788-76.131-53.859-53.859c22.856-25.881 37.481-59.186 39.75-95.786h76.088c-2.325 55.953-24.054 108.425-61.979 149.645z"/><circle cx="482.075" cy="158.87" r="10"/></g></svg>